# Blender v2.92.0 OBJ File: ''
# www.blender.org
mtllib untitled.mtl
o Cube
v 1.000000 1.000000 -1.000000
v 1.000000 -1.000000 -1.000000
v 1.000000 1.000000 1.000000
v 1.000000 -1.000000 1.000000
v -1.000000 1.000000 -1.000000
v -1.000000 -1.000000 -1.000000
v -1.000000 1.000000 1.000000
v -1.000000 -1.000000 1.000000
vt 0.499999 0.499995
vt 0.000001 1.000006
vt 0.000001 0.499995
vt 0.999994 1.000000
vt 0.500000 0.499997
vt 0.999994 0.499997
vt 1.000000 0.999997
vt 0.500009 0.499997
vt 0.999996 0.499997
vt 0.500002 0.000000
vt 0.000010 0.499998
vt 0.000010 0.000000
vt 0.999997 1.000001
vt 0.500012 0.500009
vt 0.999997 0.500009
vt 0.999996 1.000000
vt 0.500006 0.500004
vt 0.999996 0.500004
vt 0.499999 1.000006
vt 0.500010 0.999997
vt 0.500012 1.000000
vt 0.500006 1.000000
vn 0.0000 1.0000 0.0000
vn 0.0000 0.0000 1.0000
vn -1.0000 0.0000 0.0000
vn 0.0000 -1.0000 0.0000
vn 1.0000 0.0000 0.0000
vn 0.0000 0.0000 -1.0000
usemtl Material
s off
f 5/1/1 3/2/1 1/3/1
f 3/4/2 8/5/2 4/6/2
f 7/7/3 6/8/3 8/9/3
f 2/10/4 8/11/4 6/12/4
f 1/13/5 4/14/5 2/15/5
f 5/16/6 2/17/6 6/18/6
f 5/1/1 7/19/1 3/2/1
f 3/4/2 7/19/2 8/5/2
f 7/7/3 5/20/3 6/8/3
f 2/10/4 4/14/4 8/11/4
f 1/13/5 3/21/5 4/14/5
f 5/16/6 1/22/6 2/17/6
